<svg width="205" height="40" viewBox="0 0 205 40" fill="none" xmlns="http://www.w3.org/2000/svg">
<path d="M28.656 5.664L19.392 38.928H9.6L0 5.664H8.304L14.64 32.784L20.592 5.664H28.656Z" fill="black"/>
<path d="M38.559 13.44V38.928H30.975V13.44H38.559ZM34.719 0C36.031 0 37.103 0.416 37.935 1.248C38.799 2.048 39.231 3.072 39.231 4.32C39.231 5.568 38.799 6.608 37.935 7.44C37.103 8.24 36.031 8.64 34.719 8.64C33.407 8.64 32.335 8.24 31.503 7.44C30.671 6.608 30.255 5.568 30.255 4.32C30.255 3.072 30.671 2.048 31.503 1.248C32.335 0.416 33.407 0 34.719 0Z" fill="black"/>
<path d="M72.6979 12.624C74.7139 12.624 76.3299 13.312 77.5459 14.688C78.7619 16.032 79.3699 17.904 79.3699 20.304V38.928H71.7859V21.6C71.7859 19.328 71.0659 18.192 69.6259 18.192C68.8259 18.192 68.1219 18.464 67.5139 19.008C66.9059 19.552 66.3139 20.384 65.7379 21.504V38.928H58.1539V21.6C58.1539 19.328 57.4339 18.192 55.9939 18.192C55.2259 18.192 54.5219 18.48 53.8819 19.056C53.2739 19.6 52.6819 20.416 52.1059 21.504V38.928H44.5219V13.44H51.1459L51.6739 16.416C52.6659 15.136 53.7539 14.192 54.9379 13.584C56.1539 12.944 57.5299 12.624 59.0659 12.624C60.5059 12.624 61.7379 12.976 62.7619 13.68C63.8179 14.384 64.5859 15.376 65.0659 16.656C66.0899 15.28 67.2099 14.272 68.4259 13.632C69.6739 12.96 71.0979 12.624 72.6979 12.624Z" fill="black"/>
<path d="M107.293 25.68C107.293 26.736 107.245 27.648 107.149 28.416H91.3568C91.6127 30.56 92.2207 32.064 93.1807 32.928C94.1407 33.792 95.4688 34.224 97.1647 34.224C98.1888 34.224 99.1807 34.048 100.141 33.696C101.101 33.312 102.141 32.736 103.261 31.968L106.381 36.192C103.405 38.56 100.093 39.744 96.4447 39.744C92.3167 39.744 89.1488 38.528 86.9408 36.096C84.7327 33.664 83.6288 30.4 83.6288 26.304C83.6288 23.712 84.0928 21.392 85.0208 19.344C85.9488 17.264 87.3088 15.632 89.1008 14.448C90.8928 13.232 93.0368 12.624 95.5328 12.624C99.2128 12.624 102.093 13.776 104.173 16.08C106.253 18.384 107.293 21.584 107.293 25.68ZM99.8528 23.52C99.7888 19.616 98.4128 17.664 95.7247 17.664C94.4128 17.664 93.3887 18.144 92.6527 19.104C91.9487 20.064 91.5168 21.648 91.3568 23.856H99.8528V23.52Z" fill="black"/>
<path d="M125.377 12.72C126.305 12.72 127.153 12.832 127.921 13.056L126.721 20.4C125.761 20.176 124.993 20.064 124.417 20.064C122.913 20.064 121.761 20.592 120.961 21.648C120.193 22.672 119.585 24.224 119.137 26.304V38.928H111.553V13.44H118.177L118.801 18.384C119.377 16.624 120.241 15.248 121.393 14.256C122.577 13.232 123.905 12.72 125.377 12.72Z" fill="black"/>
<path d="M140.406 12.624C142.166 12.624 143.75 12.88 145.158 13.392C146.566 13.904 147.894 14.688 149.142 15.744L145.878 20.256C144.278 19.04 142.662 18.432 141.03 18.432C139.334 18.432 138.054 19.056 137.19 20.304C136.326 21.552 135.894 23.568 135.894 26.352C135.894 29.04 136.326 30.944 137.19 32.064C138.054 33.184 139.302 33.744 140.934 33.744C141.798 33.744 142.582 33.616 143.286 33.36C143.99 33.072 144.838 32.624 145.83 32.016L149.142 36.72C146.614 38.736 143.75 39.744 140.55 39.744C137.958 39.744 135.718 39.2 133.83 38.112C131.942 36.992 130.486 35.44 129.462 33.456C128.438 31.44 127.926 29.088 127.926 26.4C127.926 23.712 128.438 21.328 129.462 19.248C130.486 17.168 131.942 15.552 133.83 14.4C135.718 13.216 137.91 12.624 140.406 12.624Z" fill="black"/>
<path d="M172.122 31.536C172.122 32.496 172.25 33.2 172.506 33.648C172.794 34.096 173.242 34.432 173.85 34.656L172.266 39.6C170.698 39.472 169.418 39.136 168.426 38.592C167.434 38.016 166.666 37.12 166.122 35.904C164.458 38.464 161.898 39.744 158.442 39.744C155.914 39.744 153.898 39.008 152.394 37.536C150.89 36.064 150.138 34.144 150.138 31.776C150.138 28.992 151.162 26.864 153.21 25.392C155.258 23.92 158.218 23.184 162.09 23.184H164.682V22.08C164.682 20.576 164.362 19.552 163.722 19.008C163.082 18.432 161.962 18.144 160.362 18.144C159.53 18.144 158.522 18.272 157.338 18.528C156.154 18.752 154.938 19.072 153.69 19.488L151.962 14.496C153.562 13.888 155.194 13.424 156.858 13.104C158.554 12.784 160.122 12.624 161.562 12.624C165.21 12.624 167.882 13.376 169.578 14.88C171.274 16.384 172.122 18.64 172.122 21.648V31.536ZM160.65 34.32C162.378 34.32 163.722 33.504 164.682 31.872V27.36H162.81C161.082 27.36 159.786 27.664 158.922 28.272C158.09 28.88 157.674 29.824 157.674 31.104C157.674 32.128 157.93 32.928 158.442 33.504C158.986 34.048 159.722 34.32 160.65 34.32Z" fill="black"/>
<path d="M194.146 37.728C193.219 38.368 192.131 38.864 190.883 39.216C189.667 39.568 188.451 39.744 187.234 39.744C181.667 39.712 178.883 36.64 178.883 30.528V18.72H175.283V13.44H178.883V7.92L186.467 7.056V13.44H192.322L191.507 18.72H186.467V30.432C186.467 31.616 186.658 32.464 187.042 32.976C187.426 33.488 188.035 33.744 188.867 33.744C189.73 33.744 190.642 33.472 191.602 32.928L194.146 37.728Z" fill="black"/>
<path d="M204.262 13.44V38.928H196.678V13.44H204.262ZM200.422 0C201.734 0 202.806 0.416 203.638 1.248C204.502 2.048 204.934 3.072 204.934 4.32C204.934 5.568 204.502 6.608 203.638 7.44C202.806 8.24 201.734 8.64 200.422 8.64C199.11 8.64 198.038 8.24 197.206 7.44C196.374 6.608 195.958 5.568 195.958 4.32C195.958 3.072 196.374 2.048 197.206 1.248C198.038 0.416 199.11 0 200.422 0Z" fill="black"/>
</svg>
